<mxfile host="app.diagrams.net" modified="2023-12-30T14:46:03.309Z" agent="Mozilla/5.0 (Macintosh; Intel Mac OS X 10_15_7) AppleWebKit/537.36 (KHTML, like Gecko) Chrome/120.0.0.0 Safari/537.36" etag="dapM-2zkX5148Zl-scIc" version="22.1.16" type="github">
  <diagram id="0d7cefc2-ccd6-e077-73ed-a8e48b0cddf6" name="Page-1">
    <mxGraphModel dx="3151" dy="1336" grid="1" gridSize="10" guides="1" tooltips="1" connect="1" arrows="1" fold="1" page="1" pageScale="1" pageWidth="1169" pageHeight="827" background="none" math="0" shadow="0">
      <root>
        <mxCell id="0" />
        <mxCell id="1" parent="0" />
        <mxCell id="3238N6uz9ZZqnU5c4idW-120" value="&lt;font style=&quot;font-size: 24px;&quot;&gt;Github classroom&lt;/font&gt;" style="text;html=1;align=center;verticalAlign=middle;resizable=0;points=[];autosize=1;strokeColor=none;fillColor=none;" parent="1" vertex="1">
          <mxGeometry x="-860" y="265" width="210" height="40" as="geometry" />
        </mxCell>
        <mxCell id="3238N6uz9ZZqnU5c4idW-149" value="&lt;font style=&quot;font-size: 24px;&quot;&gt;ARA server&lt;br&gt;(heroku)&lt;br&gt;&lt;/font&gt;" style="ellipse;shape=cloud;whiteSpace=wrap;html=1;" parent="1" vertex="1">
          <mxGeometry x="428" y="370" width="330" height="230" as="geometry" />
        </mxCell>
        <mxCell id="3238N6uz9ZZqnU5c4idW-154" value="" style="shape=flexArrow;endArrow=classic;startArrow=classic;html=1;rounded=0;exitX=1;exitY=0.5;exitDx=0;exitDy=0;entryX=0.07;entryY=0.4;entryDx=0;entryDy=0;entryPerimeter=0;" parent="1" target="3238N6uz9ZZqnU5c4idW-149" edge="1">
          <mxGeometry width="100" height="100" relative="1" as="geometry">
            <mxPoint x="300" y="463.3300000000001" as="sourcePoint" />
            <mxPoint x="730" y="310.42" as="targetPoint" />
          </mxGeometry>
        </mxCell>
        <mxCell id="3238N6uz9ZZqnU5c4idW-194" value="" style="shape=flexArrow;endArrow=classic;startArrow=classic;html=1;rounded=0;exitX=0.4;exitY=0.1;exitDx=0;exitDy=0;exitPerimeter=0;entryX=0.55;entryY=0.95;entryDx=0;entryDy=0;entryPerimeter=0;" parent="1" edge="1" target="3238N6uz9ZZqnU5c4idW-195" source="3238N6uz9ZZqnU5c4idW-149">
          <mxGeometry width="100" height="100" relative="1" as="geometry">
            <mxPoint x="550" y="359.87999999999994" as="sourcePoint" />
            <mxPoint x="520" y="230.42" as="targetPoint" />
          </mxGeometry>
        </mxCell>
        <mxCell id="3238N6uz9ZZqnU5c4idW-195" value="&lt;font style=&quot;&quot;&gt;&lt;font style=&quot;font-size: 24px;&quot;&gt;AI API&lt;/font&gt;&lt;br&gt;&lt;/font&gt;" style="ellipse;shape=cloud;whiteSpace=wrap;html=1;" parent="1" vertex="1">
          <mxGeometry x="470" y="189.45999999999998" width="156" height="120" as="geometry" />
        </mxCell>
        <mxCell id="3238N6uz9ZZqnU5c4idW-196" value="" style="shape=image;html=1;verticalAlign=top;verticalLabelPosition=bottom;labelBackgroundColor=#ffffff;imageAspect=0;aspect=fixed;image=https://cdn0.iconfinder.com/data/icons/social-media-2183/512/social__media__social_media__github_-128.png" parent="1" vertex="1">
          <mxGeometry x="320.96" y="309.46000000000004" width="106.08" height="106.08" as="geometry" />
        </mxCell>
        <mxCell id="vtLs_BUKpmhbrvxbwiwr-2" value="" style="rounded=1;whiteSpace=wrap;html=1;" vertex="1" parent="1">
          <mxGeometry x="-510" y="200" width="290" height="525.83" as="geometry" />
        </mxCell>
        <mxCell id="3238N6uz9ZZqnU5c4idW-116" value="&lt;font style=&quot;font-size: 24px;&quot;&gt;GitHub organisation &quot;nuwm-labs&quot;&lt;/font&gt;" style="text;html=1;align=center;verticalAlign=middle;resizable=0;points=[];autosize=1;strokeColor=none;fillColor=none;" parent="1" vertex="1">
          <mxGeometry x="-510" y="154.17" width="380" height="40" as="geometry" />
        </mxCell>
        <mxCell id="3238N6uz9ZZqnU5c4idW-109" value="&lt;font style=&quot;font-size: 18px;&quot;&gt;intro-to-oop&lt;br&gt;(template repo)&lt;/font&gt;" style="rounded=1;whiteSpace=wrap;html=1;" parent="1" vertex="1">
          <mxGeometry x="-490" y="228.33333333333331" width="240" height="56.94444444444444" as="geometry" />
        </mxCell>
        <mxCell id="3238N6uz9ZZqnU5c4idW-119" value="" style="rounded=0;whiteSpace=wrap;html=1;labelBackgroundColor=#FFFFFF;labelBorderColor=none;textOpacity=0;" parent="1" vertex="1">
          <mxGeometry x="-860" y="308.06" width="620" height="361.94" as="geometry" />
        </mxCell>
        <mxCell id="3238N6uz9ZZqnU5c4idW-121" value="&lt;font style=&quot;font-size: 17px;&quot;&gt;into-to-oop-studen-1&lt;/font&gt;" style="rounded=1;whiteSpace=wrap;html=1;" parent="1" vertex="1">
          <mxGeometry x="-490" y="319.44444444444446" width="240" height="56.94444444444444" as="geometry" />
        </mxCell>
        <mxCell id="3238N6uz9ZZqnU5c4idW-123" value="&lt;font style=&quot;font-size: 18px;&quot;&gt;into-to-oop-studen-2&lt;/font&gt;" style="rounded=1;whiteSpace=wrap;html=1;" parent="1" vertex="1">
          <mxGeometry x="-490" y="387.77777777777777" width="240" height="56.94444444444444" as="geometry" />
        </mxCell>
        <mxCell id="3238N6uz9ZZqnU5c4idW-124" value="&lt;font style=&quot;font-size: 18px;&quot;&gt;into-to-oop-studen-3&lt;/font&gt;" style="rounded=1;whiteSpace=wrap;html=1;" parent="1" vertex="1">
          <mxGeometry x="-490" y="456.1111111111111" width="240" height="56.94444444444444" as="geometry" />
        </mxCell>
        <mxCell id="3238N6uz9ZZqnU5c4idW-126" value="&lt;font style=&quot;font-size: 18px;&quot;&gt;into-to-oop-studen-4&lt;/font&gt;" style="rounded=1;whiteSpace=wrap;html=1;" parent="1" vertex="1">
          <mxGeometry x="-490" y="530.0011111111111" width="240" height="56.94444444444444" as="geometry" />
        </mxCell>
        <mxCell id="3238N6uz9ZZqnU5c4idW-127" value="&lt;font style=&quot;font-size: 18px;&quot;&gt;into-to-oop-studen-....&lt;/font&gt;" style="rounded=1;whiteSpace=wrap;html=1;" parent="1" vertex="1">
          <mxGeometry x="-490" y="600.0011111111111" width="240" height="56.94444444444444" as="geometry" />
        </mxCell>
        <mxCell id="3238N6uz9ZZqnU5c4idW-129" style="edgeStyle=orthogonalEdgeStyle;rounded=0;orthogonalLoop=1;jettySize=auto;html=1;exitX=0.5;exitY=1;exitDx=0;exitDy=0;" parent="1" source="3238N6uz9ZZqnU5c4idW-119" target="3238N6uz9ZZqnU5c4idW-119" edge="1">
          <mxGeometry relative="1" as="geometry" />
        </mxCell>
        <mxCell id="3238N6uz9ZZqnU5c4idW-133" value="&lt;font style=&quot;font-size: 18px;&quot;&gt;nuwm-lab-classroom-oop&lt;/font&gt;" style="rounded=1;whiteSpace=wrap;html=1;" parent="1" vertex="1">
          <mxGeometry x="-820" y="376.39" width="170" height="210" as="geometry" />
        </mxCell>
        <mxCell id="3238N6uz9ZZqnU5c4idW-142" value="" style="edgeStyle=orthogonalEdgeStyle;rounded=0;orthogonalLoop=1;jettySize=auto;html=1;" parent="1" source="3238N6uz9ZZqnU5c4idW-109" target="3238N6uz9ZZqnU5c4idW-133" edge="1">
          <mxGeometry relative="1" as="geometry">
            <mxPoint x="-620" y="366.38555555555536" as="targetPoint" />
          </mxGeometry>
        </mxCell>
        <mxCell id="3238N6uz9ZZqnU5c4idW-147" value="" style="shape=singleArrow;whiteSpace=wrap;html=1;arrowWidth=0.4;arrowSize=0.4;rounded=1;" parent="1" vertex="1">
          <mxGeometry x="-600" y="452.09000000000003" width="80" height="60" as="geometry" />
        </mxCell>
        <mxCell id="3238N6uz9ZZqnU5c4idW-108" value="&lt;font style=&quot;font-size: 24px;&quot;&gt;Custom GitHub App&lt;br&gt;&quot;auto-review-assitant&quot;&lt;br&gt;ARA&lt;br&gt;&lt;/font&gt;" style="rounded=1;whiteSpace=wrap;html=1;" parent="1" vertex="1">
          <mxGeometry x="50" y="402.91" width="240" height="120" as="geometry" />
        </mxCell>
        <mxCell id="3238N6uz9ZZqnU5c4idW-156" value="" style="shape=flexArrow;endArrow=classic;startArrow=classic;html=1;rounded=0;entryX=0;entryY=0.5;entryDx=0;entryDy=0;" parent="1" source="vtLs_BUKpmhbrvxbwiwr-2" target="3238N6uz9ZZqnU5c4idW-108" edge="1">
          <mxGeometry width="100" height="100" relative="1" as="geometry">
            <mxPoint x="-170" y="482.0866666666668" as="sourcePoint" />
            <mxPoint x="-65" y="387.78" as="targetPoint" />
          </mxGeometry>
        </mxCell>
        <mxCell id="3238N6uz9ZZqnU5c4idW-107" value="" style="dashed=0;outlineConnect=0;html=1;align=center;labelPosition=center;verticalLabelPosition=bottom;verticalAlign=top;shape=mxgraph.weblogos.github" parent="1" vertex="1">
          <mxGeometry x="-610" y="325" width="75" height="75" as="geometry" />
        </mxCell>
        <mxCell id="vtLs_BUKpmhbrvxbwiwr-8" value="&lt;font style=&quot;font-size: 17px;&quot;&gt;pull_request.opened,&lt;br style=&quot;border-color: var(--border-color);&quot;&gt;pull_request.reopened,&lt;br style=&quot;border-color: var(--border-color);&quot;&gt;pull_request.synchronised&lt;/font&gt;" style="html=1;outlineConnect=0;whiteSpace=wrap;fillColor=#EBEBEB;shape=mxgraph.archimate3.event;direction=east;" vertex="1" parent="1">
          <mxGeometry x="-220" y="360" width="260" height="70" as="geometry" />
        </mxCell>
        <mxCell id="vtLs_BUKpmhbrvxbwiwr-9" value="&lt;font style=&quot;font-size: 17px;&quot;&gt;Send review on code patch&lt;/font&gt;" style="html=1;outlineConnect=0;whiteSpace=wrap;fillColor=#EBEBEB;shape=mxgraph.archimate3.event;direction=west;" vertex="1" parent="1">
          <mxGeometry x="-220" y="500" width="260" height="40" as="geometry" />
        </mxCell>
        <mxCell id="vtLs_BUKpmhbrvxbwiwr-10" value="&lt;span style=&quot;font-size: 17px;&quot;&gt;Webhooks&lt;/span&gt;" style="html=1;outlineConnect=0;whiteSpace=wrap;fillColor=#EBEBEB;shape=mxgraph.archimate3.event;direction=east;" vertex="1" parent="1">
          <mxGeometry x="304.5" y="414" width="139" height="24.18" as="geometry" />
        </mxCell>
      </root>
    </mxGraphModel>
  </diagram>
</mxfile>
